<?xml version="1.0" encoding="UTF-8" standalone="no"?>
<!-- Created with Inkscape (http://www.inkscape.org/) -->

<svg
   version="1.1"
   id="svg1"
   width="411.86075"
   height="92.692406"
   viewBox="0 0 411.86075 92.692406"
   xmlns="http://www.w3.org/2000/svg"
   xmlns:svg="http://www.w3.org/2000/svg">
  <defs
     id="defs1" />
  <g
     id="g1"
     transform="translate(-69.139831,-17.083595)">
    <path
       id="path1"
       style="fill:#333333;fill-opacity:1"
       d="m 437.35018,17.087333 c -1.42867,0.05898 -2.89652,0.817403 -3.94141,2.41211 -1.51741,2.315868 -1.51741,2.684131 0,5 2.78638,4.252551 8.5918,2.563303 8.5918,-2.5 0,-3.164565 -2.26927,-5.010417 -4.65039,-4.91211 z m -213.34961,2.720703 v 3.515625 3.517579 c 2.67312,-2.346804 5.34641,-3.051823 8.01953,0.197265 l 4.91797,0.132813 c 12.74471,0.324562 12.98154,0.372301 15.98633,3.253906 4.06972,3.902882 4.7847,8.18402 2.30273,13.794922 -2.42605,5.484478 -6.74337,7.779297 -14.62891,7.779297 h -5.59765 v 3.5 c 0,3.411544 0.0999,3.5 3.96484,3.5 5.61421,0 9.66298,3.935481 17.5957,17.101562 l 6.56641,10.898438 h 4.4707 c 4.32703,0 4.43265,-0.07263 3.26758,-2.25 -3.58638,-6.702472 -15.92047,-24.648569 -18.14258,-26.396485 l -2.58203,-2.029297 3.88477,-1.714843 c 13.47984,-5.947289 14.37088,-25.292901 1.47461,-32.021485 -3.36277,-1.754512 -6.19049,-2.142802 -17.75,-2.433593 z m 4.11328,5.908204 c -1.33404,-0.01273 -2.70581,0.734775 -4.11328,2.283203 v 29.5 29.5 h 4 4 v -29.5 -29.5 c -1.25636,-1.49752 -2.55268,-2.270476 -3.88672,-2.283203 z m 252.88672,12.023437 -4.54102,0.511719 c -4.8549,0.547219 -7.63209,2.447021 -10.59765,7.248047 l -1.85352,3 -0.004,-4.75 -0.004,-4.75 h -3.5 -3.5 v 24 24 h 3.42969 3.43164 l 0.31836,-15.75 c 0.26276,-12.981123 0.6516,-16.415918 2.20507,-19.542969 2.30574,-4.641259 6.685,-7.118967 11.26953,-6.375 3.33431,0.541076 3.34571,0.530438 3.34571,-3.523438 z m -79.5625,0.375 c -3.8693,-0.06486 -8.01123,0.680308 -11.93164,2.318359 -3.07487,1.284765 -3.50586,1.901353 -3.50586,5.015625 0,4.00122 0.19167,4.125122 3.28515,2.107422 3.84042,-2.504898 11.55399,-3.763041 15.36329,-2.505859 3.65819,1.207315 6.35156,5.173317 6.35156,9.355469 0,2.708035 0.46164,2.543521 -12.86914,4.558593 -3.50277,0.529476 -7.96138,1.788511 -9.90821,2.798829 -9.62472,4.994781 -9.50124,19.935135 0.20118,24.341796 2.24171,1.018149 5.65117,1.851563 7.57617,1.851563 4.49314,0 11.27143,-3.078203 13.36719,-6.070313 l 1.63281,-2.332031 v 3.722656 c 0,3.687891 0.0376,3.722657 4.07617,3.722657 h 4.07617 l -0.32617,-19.25 c -0.3056,-18.019808 -0.47367,-19.484464 -2.61719,-22.931641 -2.63358,-4.235296 -8.32265,-6.595027 -14.77148,-6.703125 z m -48.71094,0.132813 c -5.58311,-0.12116 -11.16573,1.950879 -14.55664,6.261718 l -2.16992,2.759766 v -4.134766 -4.134765 h -4 -4 v 35 19.464843 h 8 V 80.792411 l 3.47851,3.054688 c 5.81801,5.108279 15.43269,5.429453 22.53516,0.751953 10.42849,-6.867918 13.367,-28.837685 5.27734,-39.457031 -3.39612,-4.458126 -8.98134,-6.773372 -14.56445,-6.894531 z m -16.72656,55.216796 v 1.431641 9.984373 h 30.62109 c 5.4607,0 5.52559,-11.416014 0,-11.416014 z m 0,11.416014 h -8 v 4.11914 h 4 4 z m -8,0 V 93.464286 h -83.33203 c 0,0 -11.47155,2.453542 -11.40235,5.892579 0.0678,3.370435 11.40235,5.523435 11.40235,5.523435 z M 297.00252,38.503349 c -9.00115,-0.0035 -15.17345,3.652052 -19.20898,11.376953 -2.39608,4.586617 -2.79297,6.514548 -2.79297,13.537109 0,6.827573 0.43446,9.063238 2.61523,13.439454 2.74918,5.516889 4.98483,7.480238 11.14258,9.785156 4.77385,1.786905 15.55602,1.128861 20.55273,-1.253906 3.18335,-1.518033 3.68946,-2.224069 3.68946,-5.15625 0,-1.868965 -0.3375,-3.224055 -0.75,-3.011719 -5.76202,2.966021 -9.61011,4.127292 -13.79102,4.164062 -8.64395,0.07603 -15.01954,-5.382106 -15.67578,-13.419922 l -0.2832,-3.464843 16.86523,-0.273438 16.86328,-0.27539 -0.41992,-6.22461 c -0.54055,-8.007223 -3.10842,-13.233634 -8.13867,-16.5625 -3.33562,-2.207403 -5.1449,-2.657956 -10.66797,-2.660156 z m 135.99805,0.496094 v 24 24 h 4 4 v -24 -24 h -4 z m -136.9668,5.390625 c 1.7361,-0.07569 3.50911,0.226723 5.23828,0.949218 3.58507,1.497939 5.84627,4.650485 7.10742,9.910157 l 0.65821,2.75 h -13.53125 -13.53321 l 1.52735,-3.75 c 2.44027,-5.991686 7.3249,-9.632318 12.5332,-9.859375 z m 55.67969,0.02344 c 4.06356,0.275893 7.71305,2.626079 10.38281,6.890625 1.67886,2.681694 1.95153,4.592414 1.70117,11.875 -0.31712,9.224278 -1.52234,12.032996 -6.88281,16.035156 -5.36315,4.004177 -12.77089,2.901398 -17.91406,-2.666015 -2.22658,-2.410241 -2.53468,-3.708713 -2.80469,-11.876953 -0.37236,-11.264221 1.22617,-15.009452 7.87891,-18.478516 2.6137,-1.362913 5.20053,-1.944833 7.63867,-1.779297 z m 58.0957,18.740235 c 1.15005,0.02992 1.19141,0.935293 1.19141,4.316406 0,5.365976 -1.88856,9.571538 -5.30274,11.808594 -3.58428,2.348515 -8.75787,2.905927 -12.29882,1.326171 -3.27564,-1.461386 -4.39844,-3.276604 -4.39844,-7.105468 0,-5.481484 3.03067,-7.842431 11.51172,-8.966797 2.74275,-0.363618 6.22578,-0.892466 7.73828,-1.175781 0.66952,-0.125415 1.17524,-0.213098 1.55859,-0.203125 z" />
    <path
       style="display:inline;fill:#333333;fill-opacity:1;stroke-width:2.89134;stroke-linecap:square"
       d="m 78.524247,89.507711 c 0,0 20.79846,-59.364011 20.75085,-59.300528 -0.0476,0.06348 17.378443,51.608913 17.378443,51.608913 l -22.199451,-0.07814 -2.631628,7.771436 h 31.607919 c 5.01247,-0.144353 4.01702,-3.750738 2.41852,-7.918565 L 104.88182,25.422722 c -1.0363,-2.776109 -1.97955,-3.226681 -4.39489,-3.227767 l -2.915199,-0.0013 c -2.148773,-9.67e-4 -2.883829,0.845903 -3.673242,2.797272 L 69.13983,89.500208 Z"
       id="path1-2" />
    <path
       d="M 117.81463,55.493637 V 36.811548 c 0,-2.183022 6.88392,-2.163784 6.88392,0 v 6.953478 c 1.42525,-2.426717 3.32082,-4.371202 5.68672,-5.833454 2.36591,-1.493366 5.05962,-2.240047 8.08113,-2.240047 3.36358,0 6.1143,0.762238 8.25216,2.286713 2.16637,1.524476 3.69138,3.655633 4.57503,6.393469 3.59162,-5.786789 8.26642,-8.680182 14.0244,-8.680182 4.50376,0 7.96711,1.368915 10.39002,4.106753 2.42293,2.706722 3.63437,6.891255 3.63437,12.553598 v 34.020719 h -7.65356 v -31.22066 c 0,-3.360071 -0.25654,-5.771234 -0.76962,-7.233486 -0.48459,-1.493365 -1.38249,-2.69117 -2.69373,-3.593411 -1.31121,-0.902241 -2.85047,-1.353361 -4.61777,-1.353361 -3.19255,0 -5.8435,1.166692 -7.95286,3.500075 -2.10936,2.30227 -3.16404,6.00457 -3.16404,11.106901 v 28.793942 h -7.69632 V 54.171914 c 0,-3.733413 -0.6271,-6.533471 -1.88132,-8.400177 -1.25421,-1.866707 -3.30656,-2.80006 -6.15705,-2.80006 -2.16637,0 -4.17596,0.622235 -6.02878,1.866706 -1.82431,1.24447 -3.14979,3.064508 -3.97643,5.460115 -0.82664,2.395607 -1.23996,5.849013 -1.23996,10.360221 l -0.16649,14.767909 z m 80.73757,23.555898 c 0,0 0.74552,1.544831 0.74552,3.650929 0,2.275774 -0.78642,3.565839 -0.78642,3.565839 -2.16637,0.497787 -3.56232,0.746683 -5.27262,0.746683 -2.79348,0 -4.95986,-0.482233 -6.49911,-1.446697 -1.53926,-0.964467 -2.62244,-2.224493 -3.24955,-3.780081 -0.62711,-1.5867 -0.94067,-4.900104 -0.94067,-9.940211 V 43.332062 h -3.23316 c -0.51177,-1.200167 -1.1142,-2.287314 -2.7272,-3.866599 V 36.79859 h 5.96039 V 24.524998 c 0.16579,-2.901778 0.95174,-4.950836 3.15558,-5.050292 l 4.49797,0.01019 v 17.313698 h 7.7391 v 6.533472 h -7.7391 v 28.980613 c 0,2.395604 0.12828,3.935637 0.38483,4.620097 0.28506,0.684458 0.72689,1.228914 1.32548,1.633367 0.62709,0.404453 1.51076,0.60668 2.65095,0.60668 1.00068,0 3.98801,-0.123288 3.98801,-0.123288 z"
       id="text4"
       style="font-size:77.662px;font-family:Arial;-inkscape-font-specification:Arial;letter-spacing:0px;display:inline;fill:#333333;stroke-width:13.2254;stroke-linecap:square"
       aria-label="mt" />
    <g
       id="g2"
       transform="translate(-32)">
      <path
         id="rect2"
         style="fill:#333333;stroke-width:2.49204;stroke-linecap:square"
         d="m 398.70267,105.98858 c 1.3763,-0.65145 2.61275,-1.31671 3.26756,-2.18943 2.34211,-3.12148 1.97779,-6.532447 0.49191,-8.564007 -0.85648,-1.17102 -2.24573,-2.05127 -3.75947,-2.57786 2.00112,-2.79292 4.30633,-3.13639 9.65544,-3.13639 h 66.94885 c 5.34911,0 9.65544,3.19905 9.65544,7.17274 v 5.909617 c 0,3.97371 -4.30633,7.17275 -9.65544,7.17275 h -66.94885 c -5.34911,0 -7.6854,-0.95453 -9.65544,-3.78742 z" />
    </g>
  </g>
</svg>
